<svg width="32" height="32" viewBox="0 0 32 32" fill="none" xmlns="http://www.w3.org/2000/svg">
<path d="M5.61 4H3C2.73478 4 2.48043 4.10536 2.29289 4.29289C2.10536 4.48043 2 4.73478 2 5V10H7.61L5.61 4Z" fill="#FF6B00"/>
<path d="M12.61 10L10.61 4H7.72998L9.71998 10H12.61Z" fill="#FF6B00"/>
<path d="M18.61 10L16.61 4H12.72L14.72 10H18.61Z" fill="#FF6B00"/>
<path d="M23.61 10L21.61 4H18.72L20.72 10H23.61Z" fill="#FF6B00"/>
<path d="M29 4H23.73L25.73 10H30V5C30 4.73478 29.8946 4.48043 29.7071 4.29289C29.5196 4.10536 29.2652 4 29 4Z" fill="#FF6B00"/>
<path d="M24.28 12H2V27C2 27.2652 2.10536 27.5196 2.29289 27.7071C2.48043 27.8946 2.73478 28 3 28H29C29.2652 28 29.5196 27.8946 29.7071 27.7071C29.8946 27.5196 30 27.2652 30 27V12H24.28Z" fill="#FF6B00"/>
</svg>
